<?xml version="1.0" encoding="UTF-8"?>
<svg id="Logo" xmlns="http://www.w3.org/2000/svg" width="184.765" height="42.128" viewBox="0 0 184.765 42.128">
  <path id="Path_412" data-name="Path 412" d="M219.3,110.761H205.674v1.094h.192c.59,0,1.22.135,1.22.517v17.89c0,.142,0,.518-1.22.518h-.192v1.093h7.367V130.78h-.192c-1.029,0-1.029-.336-1.029-.518V123.44H219.3c5.419,0,8.053-2.073,8.053-6.34s-2.634-6.339-8.053-6.339m.458,8.669H211.82v-4.659h7.937c1.952,0,2.861.74,2.861,2.329s-.909,2.33-2.861,2.33" transform="translate(-205.674 -106.331)" fill="#24396b"/>
  <path id="Path_413" data-name="Path 413" d="M250.459,130.309s-4.2-6-5.072-7.246c3.673-.754,5.54-2.756,5.54-5.963,0-4.208-2.876-6.342-8.549-6.342H228.706v1.1h.2c.948,0,.948.361.948.514v17.891c0,.154,0,.514-.948.514h-.2v1.1h7.207v-1.1h-.195c-.987,0-.987-.3-.987-.514v-6.819h5.339l4.277,6.064.059.084c.323.451.536.748.536.947,0,.061-.232.238-.672.238h-.2v1.1h7.76v-1.1h-.195a1.294,1.294,0,0,1-1.18-.467m-15.728-15.772h6.623c4.205,0,4.691,1.553,4.691,2.721s-.486,2.721-4.691,2.721h-6.623v-5.442" transform="translate(-205.674 -106.331)" fill="#24396b"/>
  <path id="Path_414" data-name="Path 414" d="M265.1,110.583c-6.265,0-12.924,3.784-12.924,10.8s6.659,10.8,12.924,10.8,12.924-3.784,12.924-10.8-6.659-10.8-12.924-10.8m0,17.576c-4.03,0-8.2-2.536-8.2-6.78s4.169-6.78,8.2-6.78,8.2,2.536,8.2,6.78-4.169,6.78-8.2,6.78" transform="translate(-205.674 -106.331)" fill="#24396b"/>
  <path id="Path_415" data-name="Path 415" d="M299.1,109.812v.2a.745.745,0,0,1-.829.751h-17.5a.746.746,0,0,1-.829-.751v-.2h-1.1v5.907h1.1v-.195a.745.745,0,0,1,.829-.75h6.308v15.488a.487.487,0,0,1-.515.514h-.2v1.1h6.458v-1.1h-.194c-.307,0-.672-.089-.672-.514V114.774h6.307a.745.745,0,0,1,.829.75v.195h1.1v-5.907Z" transform="translate(-205.674 -106.331)" fill="#24396b"/>
  <path id="Path_416" data-name="Path 416" d="M322.086,126.836v.195c0,.5-.449.829-1.145.829H307.974v-5.047H315.5c.968,0,1.46.189,1.46,1.223v.195h1.1v-6.537h-1.1v.195c0,.985-.43,1.144-1.46,1.144h-7.529v-4.5h12.573c1.3,0,1.3.454,1.3.672v.195h1.1v-5.592h-1.1v.2c0,.186,0,.751-1.3.751H302.381v1.1h.2a.487.487,0,0,1,.514.513v17.891a.487.487,0,0,1-.514.514h-.2v1.1h18.56c.91,0,1.145.138,1.145.672v.195h1.1v-5.907Z" transform="translate(-205.674 -106.331)" fill="#24396b"/>
  <path id="Path_417" data-name="Path 417" d="M332.656,144.488v-1.973a.19.19,0,0,0-.207-.209V142.1h1.45v.209c-.085,0-.17.069-.17.209v5.27c0,.139.085.209.17.209v.209h-1.45v-.209a.191.191,0,0,0,.207-.209V145.6h-3.032v2.182c0,.139.084.209.169.209v.209h-1.422v-.209a.185.185,0,0,0,.179-.209v-5.27a.184.184,0,0,0-.179-.209V142.1h1.422v.209c-.085,0-.169.069-.169.209v1.973Z" transform="translate(-205.674 -106.331)" fill="#e30520"/>
  <path id="Path_418" data-name="Path 418" d="M339.973,143.351H339.8c0-.163-.095-.256-.359-.256h-3.05v1.44h1.845c.245,0,.4-.047.4-.4h.169v1.811h-.169c0-.348-.151-.418-.4-.418h-1.845v1.6h3.145a.294.294,0,0,0,.32-.3h.17v1.626h-.17c0-.232-.132-.256-.32-.256h-4.389v-.208c.085,0,.17-.07.17-.21v-5.27c0-.14-.085-.209-.17-.209V142.1h4.294c.264,0,.359-.116.359-.279h.169Z" transform="translate(-205.674 -106.331)" fill="#e30520"/>
  <path id="Path_419" data-name="Path 419" d="M342.7,145.835h1.676l-.791-2.16Zm-1.874,2.368v-.209c.16-.023.245-.22.33-.441l1.742-4.516a1.7,1.7,0,0,0,.169-.5.236.236,0,0,0-.207-.232V142.1h1.592v.209a.226.226,0,0,0-.2.232,1.169,1.169,0,0,0,.131.43l1.959,4.724a.546.546,0,0,0,.311.3v.209h-1.657v-.209c.046,0,.15-.046.15-.139a.785.785,0,0,0-.075-.3l-.358-.859h-2.3l-.339.824a1.281,1.281,0,0,0-.094.348c0,.07.085.128.179.128v.209Z" transform="translate(-205.674 -106.331)" fill="#e30520"/>
  <path id="Path_420" data-name="Path 420" d="M352.309,148.459c0-.232-.132-.256-.32-.256h-4.483v-.208c.2,0,.283-.07.283-.21v-5.27c0-.14-.085-.209-.283-.209V142.1h1.62v.209c-.179,0-.264.069-.264.209v4.62h3.127a.294.294,0,0,0,.32-.3h.169v1.626Z" transform="translate(-205.674 -106.331)" fill="#e30520"/>
  <path id="Path_421" data-name="Path 421" d="M355.2,147.785a.191.191,0,0,0,.207.209v.209h-1.45v-.209c.085,0,.17-.07.17-.209v-4.62h-1.554a.244.244,0,0,0-.245.279h-.17v-1.626h.17a.244.244,0,0,0,.245.279h4.181a.244.244,0,0,0,.245-.279h.169v1.626H357a.244.244,0,0,0-.245-.279H355.2Z" transform="translate(-205.674 -106.331)" fill="#e30520"/>
  <path id="Path_422" data-name="Path 422" d="M362.725,144.488v-1.973a.19.19,0,0,0-.207-.209V142.1h1.45v.209c-.085,0-.17.069-.17.209v5.27c0,.139.085.209.17.209v.209h-1.45v-.209a.191.191,0,0,0,.207-.209V145.6h-3.032v2.182c0,.139.084.209.169.209v.209H358.44v-.209a.184.184,0,0,0,.179-.209v-5.27a.184.184,0,0,0-.179-.209V142.1h1.422v.209c-.085,0-.169.069-.169.209v1.973Z" transform="translate(-205.674 -106.331)" fill="#e30520"/>
  <path id="Path_423" data-name="Path 423" d="M370.984,147.274l-.076.093c-.037,0-.065-.012-.1-.012a5.4,5.4,0,0,1-2.411.917,3.124,3.124,0,0,1,0-6.245,4.574,4.574,0,0,1,1.554.29c.386.139.621.29.668.29s.1-.1.133-.151l.141.139-.735,1.4-.094-.081a.9.9,0,0,0-.019-.151c-.056-.348-1.026-.743-1.648-.743a2.093,2.093,0,0,0,0,4.179c.791,0,1.874-.5,1.874-.929a.344.344,0,0,0-.037-.139l.131-.092Z" transform="translate(-205.674 -106.331)" fill="#e30520"/>
  <path id="Path_424" data-name="Path 424" d="M373.743,145.835h1.676l-.791-2.16Zm-1.874,2.368v-.209c.16-.023.245-.22.33-.441l1.742-4.516a1.7,1.7,0,0,0,.169-.5.236.236,0,0,0-.207-.232V142.1h1.591v.209a.226.226,0,0,0-.2.232,1.161,1.161,0,0,0,.133.43l1.958,4.724a.546.546,0,0,0,.311.3v.209h-1.657v-.209c.047,0,.15-.046.15-.139a.785.785,0,0,0-.075-.3l-.358-.859h-2.3l-.338.824a1.256,1.256,0,0,0-.1.348c0,.07.085.128.179.128v.209Z" transform="translate(-205.674 -106.331)" fill="#e30520"/>
  <path id="Path_425" data-name="Path 425" d="M380.053,144.814h1.629c.9,0,1.167-.372,1.167-.86s-.263-.859-1.167-.859h-1.629Zm-1.347-2.717h3.221c1.2,0,2,.488,2,1.811a1.591,1.591,0,0,1-1.356,1.718l1.252,2.206a.326.326,0,0,0,.321.163v.208h-1.761v-.208c.113,0,.207-.058.207-.128a.829.829,0,0,0-.151-.337l-1.036-1.811h-1.346v2.066c0,.14.066.21.282.21v.208h-1.629v-.208c.189,0,.273-.07.273-.21v-5.27c0-.14-.084-.209-.273-.209Z" transform="translate(-205.674 -106.331)" fill="#e30520"/>
  <path id="Path_426" data-name="Path 426" d="M390.383,143.351h-.169c0-.163-.1-.256-.358-.256H386.8v1.44h1.845c.245,0,.4-.047.4-.4h.169v1.811h-.169c0-.348-.151-.418-.4-.418H386.8v1.6h3.145a.294.294,0,0,0,.32-.3h.169v1.626h-.169c0-.232-.132-.256-.32-.256h-4.389v-.208c.086,0,.17-.07.17-.21v-5.27c0-.14-.084-.209-.17-.209V142.1h4.295c.263,0,.358-.116.358-.279h.169Z" transform="translate(-205.674 -106.331)" fill="#e30520"/>
  <path id="Path_427" data-name="Path 427" d="M359.885,106.331a4.529,4.529,0,1,0,4.529,4.529,4.535,4.535,0,0,0-4.529-4.529" transform="translate(-205.674 -106.331)" fill="#e30520"/>
  <path id="Path_428" data-name="Path 428" d="M332.286,130.493c0-.279.4-.782.639-1.083l.108-.136,3.745-4.691c.107.14,5.888,7.367,5.888,7.367h6.26s-9-11.024-9.1-11.149c.19-.234,6.72-8.312,6.72-8.312.338-.439.77-.558,2.015-.558h.2v-1.1h-8.389v1.1h.2c.323,0,.867.041.867.317a4.935,4.935,0,0,1-.923,1.3l-.1.113-3.121,3.949c-.279-.349-3.078-3.867-3.078-3.867a2.918,2.918,0,0,1-.746-1.375c0-.261.368-.436.712-.436h.2v-1.1h-8.981v1.1h.195c.915,0,1.49.355,2.369,1.463,0,0,6.1,7.763,6.289,8-.185.234-6.8,8.666-6.8,8.666a1.892,1.892,0,0,1-1.856.793h-.195v1.1h7.64v-1.1h-.2c-.315,0-.553-.153-.553-.357" transform="translate(-205.674 -106.331)" fill="#24396b"/>
  <path id="Path_429" data-name="Path 429" d="M364.787,106.945a6.677,6.677,0,0,1-.817,9.086c7.391.5,13.846,4.973,13.846,11.137,0,5.834-6.428,11.034-14.916,11.034a18.81,18.81,0,0,1-11.024-3.385c-.555-.428-1.069-.847-1.437-1.151h-6.356c5.031,5.218,9.768,6.184,15.735,6.184,11.8,0,21.406-7.64,21.406-17.031,0-7.786-7.266-14.125-16.437-15.874" transform="translate(-205.674 -106.331)" fill="#24396b"/>
</svg>
