<?xml version="1.0" encoding="UTF-8" standalone="no"?>
<!DOCTYPE svg PUBLIC "-//W3C//DTD SVG 1.1//EN" "http://www.w3.org/Graphics/SVG/1.1/DTD/svg11.dtd">
<svg width="100%" height="100%" viewBox="0 0 1193 602" version="1.1" xmlns="http://www.w3.org/2000/svg" xmlns:xlink="http://www.w3.org/1999/xlink" xml:space="preserve" xmlns:serif="http://www.serif.com/" style="fill-rule:evenodd;clip-rule:evenodd;stroke-linejoin:round;stroke-miterlimit:2;">
    <g transform="matrix(1,0,0,1,-180.917,-180.817)">
        <g id="Layer-1" serif:id="Layer 1" transform="matrix(4.16667,0,0,4.16667,0,0)">
            <g transform="matrix(1,0,0,1,58.7832,130.388)">
                <path d="M0,43.449C-4.441,43.449 -8.282,41.829 -11.223,38.888C-15.423,34.687 -15.363,29.947 -15.363,21.724C-15.363,13.503 -15.423,8.761 -11.223,4.56C-8.282,1.62 -4.441,0 0,0C7.861,0 13.743,4.621 15.243,13.142L8.642,13.142C7.622,8.822 4.741,5.821 0,5.821C-2.521,5.821 -4.801,6.781 -6.302,8.402C-8.402,10.682 -8.882,13.142 -8.882,21.724C-8.882,30.306 -8.402,32.767 -6.302,35.048C-4.801,36.668 -2.521,37.629 0,37.629C4.741,37.629 7.682,34.627 8.702,30.306L15.243,30.306C13.803,38.828 7.741,43.449 0,43.449" style="fill:rgb(0,68,124);fill-rule:nonzero;"/>
            </g>
            <g transform="matrix(1,0,0,1,93.5889,163.815)">
                <path d="M0,-23.405L-6.662,-4.441L6.481,-4.441L0,-23.405ZM11.222,9.662L8.281,1.08L-8.582,1.08L-11.522,9.662L-18.424,9.662L-2.761,-33.067L2.46,-33.067L18.124,9.662L11.222,9.662Z" style="fill:rgb(0,68,124);fill-rule:nonzero;"/>
            </g>
            <g transform="matrix(1,0,0,1,131.455,167.656)">
                <path d="M0,-31.087L-9.602,-31.087L-9.602,-17.704L0,-17.704C4.321,-17.704 7.262,-20.165 7.262,-24.366C7.262,-28.566 4.321,-31.087 0,-31.087M7.502,5.821L-1.5,-12.183L-9.602,-12.183L-9.602,5.821L-16.083,5.821L-16.083,-36.908L0.48,-36.908C8.582,-36.908 13.743,-31.687 13.743,-24.426C13.743,-18.304 10.022,-14.403 5.222,-13.083L15.063,5.821L7.502,5.821Z" style="fill:rgb(0,68,124);fill-rule:nonzero;"/>
            </g>
            <g transform="matrix(1,0,0,1,183.485,130.748)">
                <path d="M0,42.729L0,14.163L-9.842,34.987L-14.644,34.987L-24.726,14.163L-24.726,42.729L-31.207,42.729L-31.207,0L-24.726,0L-12.243,26.583L0,0L6.481,0L6.481,42.729L0,42.729Z" style="fill:rgb(0,68,124);fill-rule:nonzero;"/>
            </g>
            <g transform="matrix(1,0,0,1,198.065,130.748)">
                <path d="M0,42.729L0,0L27.307,0L27.307,5.821L6.481,5.821L6.481,18.303L24.246,18.303L24.246,24.065L6.481,24.065L6.481,36.907L27.307,36.907L27.307,42.729L0,42.729Z" style="fill:rgb(0,68,124);fill-rule:nonzero;"/>
            </g>
            <g transform="matrix(1,0,0,1,245.894,130.748)">
                <path d="M0,43.089C-8.702,43.089 -15.303,37.148 -15.303,28.325L-15.303,0L-8.821,0L-8.821,28.026C-8.821,33.728 -5.341,37.269 0,37.269C5.341,37.269 8.882,33.728 8.882,28.026L8.882,0L15.363,0L15.363,28.325C15.363,37.148 8.702,43.089 0,43.089" style="fill:rgb(0,68,124);fill-rule:nonzero;"/>
            </g>
            <g transform="matrix(1,0,0,1,281.3,130.388)">
                <path d="M0,43.449C-6.421,43.449 -11.042,41.949 -15.123,37.808L-10.803,33.547C-7.682,36.668 -4.261,37.629 0.12,37.629C5.701,37.629 8.942,35.227 8.942,31.087C8.942,29.226 8.402,27.666 7.262,26.646C6.182,25.625 5.102,25.205 2.581,24.845L-2.461,24.125C-5.941,23.644 -8.701,22.445 -10.563,20.705C-12.662,18.724 -13.683,16.023 -13.683,12.543C-13.683,5.101 -8.281,0 0.601,0C6.242,0 10.203,1.44 13.863,4.861L9.723,8.941C7.082,6.422 4.021,5.64 0.42,5.64C-4.621,5.64 -7.381,8.521 -7.381,12.303C-7.381,13.863 -6.901,15.244 -5.761,16.263C-4.681,17.223 -2.94,17.943 -0.96,18.244L3.9,18.965C7.861,19.564 10.082,20.524 11.883,22.144C14.223,24.185 15.363,27.246 15.363,30.906C15.363,38.768 8.942,43.449 0,43.449" style="fill:rgb(0,68,124);fill-rule:nonzero;"/>
            </g>
            <g transform="matrix(1,0,0,1,302.363,130.748)">
                <path d="M0,42.729L0,0L27.306,0L27.306,5.821L6.481,5.821L6.481,18.303L24.245,18.303L24.245,24.065L6.481,24.065L6.481,36.907L27.306,36.907L27.306,42.729L0,42.729Z" style="fill:rgb(0,68,124);fill-rule:nonzero;"/>
            </g>
            <g transform="matrix(-1,0,0,1,48.2339,120.39)">
                <path d="M-47.438,-4.028L4.638,-4.028L4.638,0L-52.076,0L-47.438,-4.028Z" style="fill:rgb(0,68,124);fill-rule:nonzero;"/>
            </g>
            <g transform="matrix(1,0,0,1,146.445,120.39)">
                <path d="M0,-4.028L183.211,-4.028L183.211,0L-5.858,0L0,-4.028Z" style="fill:rgb(0,68,124);fill-rule:nonzero;"/>
            </g>
            <g transform="matrix(1,0,0,1,104.193,103.686)">
                <path d="M0,-19.444C0.219,-19.632 1.273,-20.229 1.272,-20.307C5.288,-23.12 9.995,-24.493 15.086,-24.175C19.501,-23.919 23.17,-21.755 26.528,-19.114L26.043,-18.104C23.523,-19.921 20.551,-21.266 17.345,-21.458C12.284,-21.944 7.435,-20.489 4.034,-17.051C9.889,-13.522 16.139,-10.241 22.396,-7.86C22.411,-7.848 22.384,-6.118 22.384,-6.118C15.367,-8.614 8.581,-11.645 1.994,-15.152C-3.086,-9.001 -5.173,-0.349 -1.626,7.16C-0.239,9.927 2.302,12.673 5.075,14.297L5.015,14.915C-0.463,13.582 -4.501,7.9 -6.322,2.935C-6.594,1.581 -7.091,0.312 -7.165,-1.124L-7.305,-1.322C-7.683,-7.458 -5.73,-12.874 -1.929,-17.292L-11.008,-22.477C-10.216,-19.039 -8.946,-15.626 -7.762,-12.269L-7.683,-12.061C-14.818,-13.548 -23.211,-15.503 -29.604,-18.643L-29.717,-18.505C-24.807,-8.733 -17.754,0.32 -10.414,8.391L-11.154,9.652C-21.44,0.434 -28.99,-9.918 -35.917,-21.052C-37.334,-23.481 -38.751,-25.912 -39.858,-28.48C-31.029,-23.803 -22.356,-19.065 -12.671,-16.239L-13.264,-17.712C-16.039,-23.048 -18.447,-28.551 -20.291,-34.303L-20.149,-34.359C-14.115,-28.52 -6.947,-23.715 0,-19.444" style="fill:rgb(0,68,124);fill-rule:nonzero;"/>
            </g>
            <g transform="matrix(1,0,0,1,134.893,114.261)">
                <path d="M0,-65.896C1.791,-64.587 4.04,-64.346 6.203,-63.91L6.202,-63.769C2.093,-63.601 -1.986,-63.434 -6.097,-63.238C-9.847,-62.167 -12.015,-58.02 -12.293,-54.505C-12.27,-49.806 -7.623,-46.564 -4.833,-43.309C1.093,-37.951 6.874,-32 10.989,-25.247C14.743,-18.946 14.339,-9.777 10.077,-3.927C6.888,1.536 1.238,4.506 -4.701,4.885C-12.64,5.477 -20.103,2.692 -25.832,-2.554L-25.205,-3.17L-24.621,-2.741C-19.274,0.956 -11.918,3.089 -5.402,0.829C1.251,-0.98 6.925,-7.748 7.537,-14.552C7.675,-22.204 3.334,-28.707 -2.116,-33.781C-7.754,-40.124 -15.66,-43.894 -18.811,-51.85C-19.442,-53.88 -20.047,-56.052 -19.777,-58.273C-19.766,-59.989 -19.303,-61.645 -18.589,-63.131C-16.049,-68.289 -10.427,-71.373 -4.833,-70.796C-2.39,-70.246 -1.14,-67.818 0,-65.896" style="fill:rgb(0,68,124);fill-rule:nonzero;"/>
            </g>
            <g transform="matrix(-1,0,0,1,373.251,140.321)">
                <rect x="43.595" y="43.513" width="286.061" height="4.028" style="fill:rgb(0,68,124);"/>
            </g>
        </g>
    </g>
</svg>
