<?xml version="1.0" encoding="utf-8"?>
<!-- Generator: Adobe Illustrator 27.0.0, SVG Export Plug-In . SVG Version: 6.00 Build 0)  -->
<svg version="1.1" id="LOGO_NEG_POS02" xmlns="http://www.w3.org/2000/svg" xmlns:xlink="http://www.w3.org/1999/xlink" x="0px"
	 y="0px" viewBox="0 0 253 58" style="enable-background:new 0 0 253 58;" xml:space="preserve">
<style type="text/css">
	.st0{fill:#3A1D19;}
	.st1{fill:#77260F;}
	.st2{fill:#DFDAD5;}
</style>
<g>
	<path class="st0" d="M149.1,29.8v-1.5h9c0.8,0,1.5,0.7,1.5,1.5v1.5h-9C149.8,31.3,149.1,30.6,149.1,29.8 M61,14.7
		c-8.3,0-15.1,6.7-15.1,15.1l0,0c0,0.8,0.7,1.5,1.5,1.5s1.5-0.7,1.5-1.5l0,0c0-6.7,5.4-12,12-12c0.8,0,1.5-0.7,1.5-1.5
		C62.6,15.4,61.9,14.7,61,14.7 M73.1,17.8h9c0.8,0,1.5-0.7,1.5-1.5c0-0.8-0.7-1.5-1.5-1.5H71.6v1.5C71.6,17.1,72.3,17.8,73.1,17.8
		 M97.9,43.4V16.2c0-0.8-0.7-1.5-1.5-1.5h-1.5v30.1h1.5C97.2,44.9,97.9,44.2,97.9,43.4 M119.7,43.4V16.2c0-0.8-0.7-1.5-1.5-1.5h-1.5
		v30.1h1.5C119.1,44.9,119.7,44.2,119.7,43.4 M146.1,43.4V16.2c0-0.8-0.7-1.5-1.5-1.5h-1.5v30.1h1.5
		C145.4,44.9,146.1,44.2,146.1,43.4 M82.1,29.8c-0.8,0-1.5,0.7-1.5,1.5s0.7,1.5,1.5,1.5c5,0,9-4,9-9c0-0.8-0.7-1.5-1.5-1.5
		c-0.8,0-1.5,0.7-1.5,1.5C88.1,27.1,85.4,29.8,82.1,29.8 M111.4,29.8c0-0.8-0.7-1.5-1.5-1.5h-9v1.5c0,0.8,0.7,1.5,1.5,1.5h9V29.8z
		 M196.1,14.7h-1.5v30.1h1.5c0.8,0,1.5-0.7,1.5-1.5V16.3C197.6,15.4,196.9,14.8,196.1,14.7 M168.3,14.8v5l18.8,25.1v-5L168.3,14.8
		L168.3,14.8z M251.8,29.8c0-0.8-0.7-1.5-1.5-1.5s-1.5,0.7-1.5,1.5c0,6.7-5.4,12-12,12s-12-5.4-12-12c0-0.8-0.7-1.5-1.5-1.5
		c-0.8,0-1.5,0.7-1.5,1.5l0,0c0,8.3,6.7,15.1,15.1,15.1S251.8,38.1,251.8,29.8L251.8,29.8L251.8,29.8z"/>
	<path class="st1" d="M221.7,29.8c0-0.8,0.7-1.5,1.5-1.5c0.8,0,1.5,0.7,1.5,1.5c0-6.6,5.4-12,12-12s12,5.4,12,12l0,0
		c0-0.8,0.7-1.5,1.5-1.5s1.5,0.7,1.5,1.5c0-8.3-6.7-15-15.1-15C228.4,14.7,221.7,21.5,221.7,29.8L221.7,29.8L221.7,29.8z
		 M159.6,43.4v1.5h-15c0.8,0,1.5-0.7,1.5-1.5v-1.5h12C159,41.8,159.6,42.5,159.6,43.4 M82.1,14.7c0.8,0,1.5,0.7,1.5,1.5
		s-0.7,1.5-1.5,1.5c3.3,0,6,2.7,6,6c0-0.8,0.7-1.5,1.5-1.5s1.5,0.7,1.5,1.5C91.2,18.8,87.1,14.7,82.1,14.7 M203.6,14.7h-7.5
		c0.8,0,1.5,0.7,1.5,1.5v1.5h6c6.7,0,12,5.4,12,12s-5.4,12-12,12h-6v1.5c0,0.8-0.7,1.5-1.5,1.5h7.5c8.3,0,15.1-6.7,15.1-15.1
		S211.9,14.7,203.6,14.7 M187.1,44.9h3V14.7h-1.5c-0.8,0-1.5,0.7-1.5,1.5L187.1,44.9L187.1,44.9z M159.6,14.7v1.5
		c0,0.8-0.7,1.5-1.5,1.5h-12v-1.5c0-0.8-0.7-1.5-1.5-1.5H159.6L159.6,14.7z M165.2,44.9h3V14.7h-1.5c-0.8,0-1.5,0.7-1.5,1.5
		L165.2,44.9L165.2,44.9z M125.8,14.7h-7.5c0.8,0,1.5,0.7,1.5,1.5v1.5h6c6.7,0,12,5.4,12,12s-5.4,12-12,12h-6v1.5
		c0,0.8-0.7,1.5-1.5,1.5h7.5c8.3,0,15.1-6.7,15.1-15.1S134.1,14.7,125.8,14.7 M109.9,41.9h-12v1.5c0,0.8-0.7,1.5-1.5,1.5h15v-1.5
		C111.5,42.5,110.8,41.9,109.9,41.9 M111.5,14.7v1.5c0,0.8-0.7,1.5-1.5,1.5h-12v-1.5c0-0.8-0.7-1.5-1.5-1.5H111.5L111.5,14.7z
		 M73.1,17.8c-0.8,0-1.5-0.7-1.5-1.5v28.6h3V17.8H73.1L73.1,17.8z M82.1,32.8c-0.8,0-1.5-0.7-1.5-1.5c0-0.8,0.7-1.5,1.5-1.5h-4.5
		c-0.8,0-1.5,0.7-1.5,1.5c0,0.4,0.1,0.7,0.4,1l0,0l10.7,12.5h4l-10.3-12H82.1z M65.6,41.9h-4.5c-6.6,0-12-5.4-12-12
		c0,0.8-0.7,1.5-1.5,1.5c-0.8,0-1.5-0.7-1.5-1.5l0,0c0,8.3,6.7,15.1,15.1,15.1h6v-1.5C67.1,42.5,66.4,41.9,65.6,41.9 M61.1,14.7
		c0.8,0,1.5,0.7,1.5,1.5c0,0.8-0.7,1.5-1.5,1.5h4.5c0.8,0,1.5-0.7,1.5-1.5v-1.5H61.1L61.1,14.7z"/>
</g>
<g>
	<path class="st2" d="M131.8,28.3h-9v1.5c0,0.8,0.7,1.5,1.5,1.5h9v-1.5C133.3,29,132.6,28.3,131.8,28.3L131.8,28.3z"/>
	<path class="st2" d="M106.9,17.8h-9c6.1,0,11.2,4.6,11.9,10.5h0.1c0.8,0,1.5,0.7,1.5,1.5v1.5h-1.6c-0.7,5.9-5.8,10.5-11.9,10.5h9
		c3.7-2.7,6-7.1,6-12S110.6,20.5,106.9,17.8L106.9,17.8z"/>
	<path class="st2" d="M137.8,43.4c0,0.8,0.7,1.5,1.5,1.5h1.5V29.8c0,3.4-1.1,6.5-3,9L137.8,43.4L137.8,43.4z"/>
	<path class="st2" d="M137.8,16.2v4.5c1.9,2.5,3,5.6,3,9V14.7h-1.5C138.5,14.7,137.8,15.4,137.8,16.2L137.8,16.2z"/>
	<path class="st2" d="M65.6,41.8c0.8,0,1.5,0.7,1.5,1.5v1.5l0,0c1.6,0,3.1-0.2,4.5-0.7V41c-1.4,0.6-2.9,0.9-4.5,0.9L65.6,41.8
		L65.6,41.8z"/>
	<path class="st2" d="M67.1,16.2c0,0.8-0.7,1.5-1.5,1.5h1.5c1.6,0,3.1,0.3,4.5,0.9v-3.2c-1.4-0.4-2.9-0.7-4.5-0.7L67.1,16.2
		L67.1,16.2z"/>
	<path class="st2" d="M74.6,39.2v3.6c2.4-1.4,4.4-3.5,5.8-6l-2.1-2.5C77.4,36.3,76.2,37.9,74.6,39.2L74.6,39.2z"/>
	<path class="st2" d="M81.6,33.7c0.1-0.3,0.1-0.6,0.2-0.9h-1L81.6,33.7L81.6,33.7z"/>
	<path class="st2" d="M76.1,17.8h-1.5v2.6c2.8,2.2,4.5,5.6,4.5,9.4h3C82.1,24.9,79.8,20.5,76.1,17.8L76.1,17.8z"/>
	<path class="st2" d="M240.5,28.3h-9v1.5c0,0.8,0.7,1.5,1.5,1.5h9v-1.5C242,29,241.4,28.3,240.5,28.3L240.5,28.3z"/>
	<path class="st2" d="M159.6,16.2c0,0.8-0.7,1.5-1.5,1.5h1.5c2.9,0,5.3,2.4,5.3,5.3s-2.4,5.3-5.3,5.3h-1.5c0.8,0,1.5,0.7,1.5,1.5
		v1.5c2.2,0,4.1-0.8,5.6-2.2V16.9c-1.5-1.4-3.4-2.2-5.6-2.2V16.2L159.6,16.2z"/>
	<path class="st2" d="M215.7,41.8h-3c-2.5,1.9-5.6,3-9,3h15V29.8c0,3.4-1.1,6.5-3,9V41.8L215.7,41.8z"/>
	<path class="st2" d="M250.3,14.7c-0.8,0-1.5,0.7-1.5,1.5v4.5c1.9,2.5,3,5.6,3,9s-1.1,6.5-3,9v4.5c0,0.8,0.7,1.5,1.5,1.5h1.5V14.7
		L250.3,14.7L250.3,14.7z"/>
	<path class="st2" d="M212.6,17.8h3v3c1.9,2.5,3,5.6,3,9V14.7h-15.1C207,14.7,210.1,15.9,212.6,17.8z"/>
	<path class="st2" d="M180.3,41.8h-10l7.3-9.6l-1.9-2.5l-7.5,9.8v5.3h13.6v-1.5C181.8,42.5,181.1,41.8,180.3,41.8L180.3,41.8z"/>
	<path class="st2" d="M211.1,29.8c0-0.8-0.7-1.5-1.5-1.5h-9v1.5c0,0.8,0.7,1.5,1.5,1.5h9V29.8z"/>
	<path class="st2" d="M173.5,16.2c0,0.8,0.7,1.5,1.5,1.5h9.9l-7.3,9.5l1.9,2.5l7.5-9.8v-3.7c0-0.8,0.7-1.5,1.5-1.5h-15.1L173.5,16.2
		L173.5,16.2z"/>
	<path class="st2" d="M8.4,41.8h-6c-0.8,0-1.5,0.7-1.5,1.5v1.5h7.5c0.8,0,1.5-0.7,1.5-1.5S9.2,41.8,8.4,41.8L8.4,41.8z"/>
	<path class="st2" d="M14.4,17.8h15.1c0.8,0,1.5-0.7,1.5-1.5v-1.5H12.9v1.5C12.9,17.1,13.5,17.8,14.4,17.8z"/>
	<path class="st2" d="M10.5,21.1c-0.7,0.5-0.8,1.4-0.3,2.1l6.8,9c0.3,0.4,0.7,0.6,1.2,0.6h3l-8.6-11.4
		C12.1,20.7,11.1,20.6,10.5,21.1L10.5,21.1z"/>
	<path class="st2" d="M47.5,44.9H49v-6c-1.9-2.5-3-5.6-3-9v13.6C46,44.2,46.7,44.9,47.5,44.9L47.5,44.9z"/>
	<path class="st2" d="M47.5,14.7H46L25.2,41.8c-0.5,0.7-0.4,1.6,0.3,2.1l1.2,0.9L46,19.7v10.1c0-3.4,1.1-6.5,3-9v-4.5
		C49,15.4,48.3,14.7,47.5,14.7L47.5,14.7z"/>
</g>
</svg>
