<svg xmlns="http://www.w3.org/2000/svg" xmlns:xlink="http://www.w3.org/1999/xlink" width="152.955" height="83.733" viewBox="0 0 152.955 83.733">
  <defs>
    <linearGradient id="linear-gradient" x1="0.685" y1="0.459" x2="-0.892" y2="0.135" gradientUnits="objectBoundingBox">
      <stop offset="0" stop-color="#44a570"/>
      <stop offset="0.222" stop-color="#399977"/>
      <stop offset="0.614" stop-color="#1f7b8b"/>
      <stop offset="1" stop-color="#0058a4"/>
    </linearGradient>
    <linearGradient id="linear-gradient-2" x1="-0.579" y1="1.286" x2="0.434" y2="0.642" gradientUnits="objectBoundingBox">
      <stop offset="0" stop-color="#44a570"/>
      <stop offset="0.656" stop-color="#146f94"/>
      <stop offset="1" stop-color="#0058a4"/>
    </linearGradient>
    <linearGradient id="linear-gradient-3" x1="0.111" y1="-0.936" x2="0.771" y2="1.653" gradientUnits="objectBoundingBox">
      <stop offset="0" stop-color="#44a570"/>
      <stop offset="0.198" stop-color="#3d9d74"/>
      <stop offset="0.494" stop-color="#2b8982"/>
      <stop offset="0.85" stop-color="#0e6899"/>
      <stop offset="1" stop-color="#0058a4"/>
    </linearGradient>
  </defs>
  <g id="Groupe_1891" data-name="Groupe 1891" transform="translate(0 0)">
    <path id="Tracé_1" data-name="Tracé 1" d="M0,118.9c0,6.02,3.679,9.922,9.439,9.922,5.723,0,8.1-3.716,8.622-6.095v-.557H14.939a5.2,5.2,0,0,1-5.5,4.2c-3.716,0-6.02-2.787-6.094-6.689H18.321v-1.412c0-5.352-3.233-9.253-8.956-9.253C3.679,109.01,0,112.912,0,118.9Zm3.345-1.672c.3-3.27,2.416-5.76,6.02-5.76,3.679,0,5.612,2.49,5.723,5.76ZM21.135,118.9c0,6.02,3.79,9.922,9.476,9.922,5.463,0,7.99-3.419,8.473-6.392v-.557H36.037a5.006,5.006,0,0,1-5.389,4.422c-3.716,0-6.243-2.676-6.243-7.395,0-4.683,2.564-7.358,6.243-7.358a4.887,4.887,0,0,1,5.24,4.088H38.9v-.557c-.52-2.75-2.9-6.057-8.287-6.057-5.649,0-9.476,3.865-9.476,9.885Zm20.095,0c0,6.02,3.753,9.922,9.439,9.922s9.439-3.9,9.439-9.922c0-5.983-3.754-9.885-9.439-9.885s-9.439,3.9-9.439,9.885Zm3.27,0c0-4.683,2.49-7.358,6.169-7.358S56.8,114.213,56.8,118.9c0,4.719-2.452,7.395-6.132,7.395S44.5,123.615,44.5,118.9Zm18.422-4.385c0,3.27,2.453,4.72,5.983,5.351l3.084.558C74.48,120.865,76,121.5,76,123.28c0,1.858-1.709,3.084-4.905,3.084-3.159,0-5.425-1.263-5.76-4.162H62.254v.557c.557,3.679,3.679,6.057,8.882,6.057s8.027-2.379,8.027-5.723c0-3.382-2.639-4.682-6.429-5.352l-3.084-.557c-2.044-.371-3.567-1-3.567-2.824s1.784-2.9,4.719-2.9c2.973,0,4.98,1.115,5.165,3.642h3.047v-.557c-.483-3.419-3.344-5.537-8.213-5.537s-7.878,2.118-7.878,5.5Zm17.457-5.054v2.453H84.8v11.817c0,3.085,1.746,4.645,4.868,4.645h3.754v-2.527H88.369l-.3-.3V111.909h5.017v-2.453H88.072v-5.834h-.557L84.8,105.665v3.79Zm14.558,9.44c0,6.02,3.679,9.922,9.439,9.922,5.723,0,8.1-3.716,8.622-6.095v-.557h-3.122a5.2,5.2,0,0,1-5.5,4.2c-3.716,0-6.02-2.787-6.094-6.689h14.976v-1.412c0-5.352-3.233-9.253-8.956-9.253-5.685,0-9.365,3.9-9.365,9.885Zm3.345-1.672c.3-3.27,2.415-5.76,6.02-5.76,3.679,0,5.612,2.49,5.723,5.76Zm18.2-7.767v18.915h3.27v-10.48c0-3.865,1.375-5.909,4.942-5.909h1.9v-2.6h-1.932c-2.824,0-3.977,1.227-4.645,2.639h-.372v-2.564Zm12.44,0v.557l7.693,18.879-2.713,6.355v.557h3.344l10.517-25.791v-.557H144.38l-5.835,15.534h-.371L132.3,109.456Zm20.764-6.861v25.776h3.27V102.6Z" transform="translate(0 -52.071)" fill="#5d5c5c" fill-rule="evenodd"/>
    <path id="Tracé_2" data-name="Tracé 2" d="M207.973,18.375q.587-.2,1.17-.367a22.551,22.551,0,0,1,16.846,1.665,30.114,30.114,0,0,1,12.162,12.092,35.686,35.686,0,0,1,2.564,5.63V8.28c0-.106,0-.21,0-.311a7.5,7.5,0,0,0-2.6-5.9A9.72,9.72,0,0,0,232,0q-.184,0-.365,0a13.588,13.588,0,0,0-3.462.5A14.087,14.087,0,0,0,224.9,1.865,22.288,22.288,0,0,0,218.768,7.3l-.724.824c-2.2,2.487-4.419,4.867-6.765,7.159Q209.67,16.856,207.973,18.375Z" transform="translate(-105.554)" fill-rule="evenodd" fill="url(#linear-gradient)"/>
    <path id="Tracé_3" data-name="Tracé 3" d="M208.671,66.15l2.476,1.286c4.3,2.232,7.939,4.122,11.176,5.912,1.1.611,2.116,1.191,3.1,1.757,7.3,4.192,13.229,7.593,22.816,3.91L225.027,55.8a30.564,30.564,0,0,1-3.376,4.57,21.308,21.308,0,0,1-4.5,3.836C214.9,65.607,211.283,66.164,208.671,66.15Z" transform="translate(-105.909 -28.321)" fill-rule="evenodd" fill="url(#linear-gradient-2)"/>
    <path id="Tracé_4" data-name="Tracé 4" d="M204.257,46.323a27.1,27.1,0,0,1,.223-8.1,22.31,22.31,0,0,0-3.472.763c-4.678,1.421-9.333,3.9-9.206,9.448a7.776,7.776,0,0,0,1.615,4.619A6.616,6.616,0,0,0,194.7,54.3c2.356,1.727,5.678,1.6,8.438,1.17a19.327,19.327,0,0,0,2.118-.448,11.971,11.971,0,0,0,1.328-.446A28.79,28.79,0,0,1,204.257,46.323Z" transform="translate(-97.345 -19.397)" fill-rule="evenodd" fill="url(#linear-gradient-3)"/>
  </g>
</svg>
