<?xml version="1.0" encoding="utf-8"?>
<!-- Generator: Adobe Illustrator 21.0.0, SVG Export Plug-In . SVG Version: 6.00 Build 0)  -->
<svg version="1.1" id="Layer_1" xmlns="http://www.w3.org/2000/svg" xmlns:xlink="http://www.w3.org/1999/xlink" x="0px" y="0px"
	 viewBox="0 0 2551.2 878.7" style="enable-background:new 0 0 2551.2 878.7;" xml:space="preserve">
<style type="text/css">
	.st0{fill:#F7931E;}
	.st1{fill:#1C0000;}
	.st2{fill:none;stroke:#000000;}
</style>
<g>
	<rect y="1" class="st0" width="2551.9" height="635.4"/>
	<g>
		<g>
			<path class="st1" d="M912.5,250.2c0,25.4-20.6,45.9-45.9,45.9c-25.4,0-45.9-20.6-45.9-45.9c0-25.4,20.5-45.9,45.9-45.9
				C891.9,204.3,912.5,224.9,912.5,250.2z"/>
			<path class="st1" d="M1293.9,396.1c-44.9,0-81.3,36.4-81.3,81.3s36.4,81.3,81.3,81.3s81.3-36.4,81.3-81.3
				C1375.2,432.5,1338.8,396.1,1293.9,396.1z M1453.3,477.3c0,87.8-71.2,159-159,159s-159-71.2-159-159s71.2-159,159-159
				C1382.1,318.3,1453.3,389.5,1453.3,477.3z"/>
			<path class="st1" d="M690.3,444.6c16.1,0,29.1-13,29.1-29.1s-13-29.1-29.1-29.1h-54.9v58.2H690.3z M1103.2,497.8
				c13.1,14.6,21.6,33.6,21.6,54.8c0,45.6-37.3,83.7-82.9,83.7H721l-85.6-134.6v134.8H555V386.6H399.3v58h114.5V513H399.3v123.5
				h-80.4V318.3h375l0.9-0.1c51.3,0,92.9,41.9,92.9,93.6c0,39.7-24.9,72.9-59.6,86.2l37,64.1H826V318.2h80.4v243.9h123.3
				c8.2,0,14.8-6.6,14.8-14.8c0-3.3-1.1-6.3-2.9-8.8l-3.1-3.7l-84.4-93.9c-11.3-13-18.1-30-18.1-48.5c0-41,33.2-74.2,74.2-74.2
				l-3.6-0.1h112.2v68.3h-87.7c-7.6,0-13.8,6.2-13.8,13.8c0,3.4,1.3,6.6,3.3,9l88.6,94.8"/>
			<g>
				<polygon class="st1" points="1422.7,635.4 1605.9,319.4 1623.8,319.4 1623.8,610.3 1796.3,319.4 1814.1,319.4 1814.1,636 
					1799,636 1799,344.9 1626.3,636 1608.6,636 1608.6,344.9 1439.7,635.5 				"/>
				<path class="st1" d="M1904.1,527h105.5V344.4L1904.1,527z M2006.5,319h18.1v316.7h-15.1V539h-112.8l-55.7,96.7h-17L2006.5,319z"
					/>
				<polygon class="st1" points="2044.7,319 2229,318 2229,333.1 2144.7,334.1 2144.7,635.7 2129.6,635.7 2129.6,334.1 
					2044.7,334.1 				"/>
				<polygon class="st2" points="1422.1,635.8 1605.7,319 1623.6,319 1623.6,610 1796.1,319 1813.8,319 1813.8,635.7 1798.8,635.7 
					1798.8,344.6 1626.1,635.7 1608.4,635.7 1608.4,344.6 1439.4,635.8 				"/>
				<path class="st2" d="M1904.1,527h105.5V344.4L1904.1,527z M2006.5,319h18.1v316.7h-15.1V539h-112.8l-55.7,96.7h-17L2006.5,319z"
					/>
				<polygon class="st2" points="2044.7,319 2229,318 2229,333.1 2144.7,334.1 2144.7,635.7 2129.6,635.7 2129.6,334.1 
					2044.7,334.1 				"/>
				<path class="st1" d="M2220.6,582.5c4.7,0.1,8.1-1.1,8.1-6.6c0-5.9-6.2-5.9-10.5-5.9h-10.7v12.5H2220.6z M2236.1,607.8h-10
					l-9.9-18.7h-8.7v18.7h-8.6v-44.1h21.3c3.8,0,8.6,0.1,12,2.1c3.9,2.7,5.2,6.9,5.2,11.5c0,8.1-4.2,11.3-12.1,11.9L2236.1,607.8z
					 M2249.1,585.5c0-18.4-15-33.2-33.2-33.2c-18.5,0-33.3,14.8-33.3,33.2s14.9,33.3,33.3,33.3
					C2234.1,618.9,2249.1,604,2249.1,585.5z M2174.9,585.5c0-22.6,18.3-40.8,40.9-40.8c22.5,0,40.8,18.3,40.8,40.8
					c0,22.7-18.4,41-40.8,41C2193.2,626.5,2174.9,608.2,2174.9,585.5z"/>
			</g>
		</g>
		<g>
			<path class="st1" d="M319.2,718.1h3.8h3.8v79.1H323h-3.8V718.1z"/>
			<path class="st1" d="M361.9,738.7h3.5h3.6v7.5l1.2-1.5c4-5.1,9.4-7.6,16.4-7.6c7.8,0,13.8,2.5,18.2,7.5c4.4,5,6.5,11.9,6.5,20.8
				v31.9h-3.6h-3.6v-32c0-6.6-1.5-11.8-4.6-15.6s-7.4-5.6-12.9-5.6c-5.6,0-10,1.9-13,5.7s-4.6,9.3-4.6,16.3v31.2h-3.6h-3.6v-58.6
				H361.9z"/>
			<path class="st1" d="M445.1,738.7h3.5h3.6v7.5l1.2-1.5c4-5.1,9.4-7.6,16.4-7.6c7.8,0,13.8,2.5,18.2,7.5c4.4,5,6.5,11.9,6.5,20.8
				v31.9H491h-3.6v-32c0-6.6-1.5-11.8-4.6-15.6s-7.4-5.6-12.9-5.6c-5.6,0-10,1.9-13,5.7s-4.6,9.3-4.6,16.3v31.2h-3.6h-3.6
				L445.1,738.7L445.1,738.7z"/>
			<path class="st1" d="M534.5,789.8c-5.7-5.9-8.5-13.2-8.5-21.8s2.8-15.8,8.5-21.8c5.7-5.9,12.6-8.9,20.8-8.9
				c8.3,0,15.2,3,20.9,8.9s8.5,13.2,8.5,21.8s-2.8,15.8-8.5,21.8c-5.7,5.9-12.6,8.9-20.9,8.9C547.1,798.7,540.2,795.8,534.5,789.8z
				 M571.1,785.1c4.3-4.6,6.4-10.3,6.4-17s-2.1-12.3-6.4-17c-4.3-4.6-9.5-6.9-15.8-6.9c-6.2,0-11.4,2.3-15.7,6.9
				c-4.3,4.6-6.4,10.3-6.4,17s2.1,12.4,6.4,17c4.3,4.6,9.5,6.9,15.7,6.9S566.8,789.7,571.1,785.1z"/>
			<path class="st1" d="M610.2,738.7h3.9h4l20,50.7l0,0l19.9-50.7h3.8h3.9L642,797.3h-4h-4.1L610.2,738.7z"/>
			<path class="st1" d="M721,798.7c-8.3,0-15.3-3-21-8.9s-8.6-13.2-8.6-21.7c0-8.6,2.9-15.9,8.6-21.8c5.7-5.9,12.8-8.9,21-8.9
				c8.4,0,15.3,3,20.8,8.9l1.9,2.3v-9.9h7.2v58.6h-3.6h-3.6v-9.7c-0.6,0.8-1.2,1.6-1.9,2.3C736.3,795.8,729.4,798.7,721,798.7z
				 M721.3,744.1c-6.4,0-11.8,2.3-16.1,7c-4.4,4.7-6.6,10.4-6.6,17.1c0,6.8,2.2,12.5,6.6,17.1c4.4,4.6,9.8,7,16.1,7
				c6.4,0,11.7-2.3,16.1-7c4.4-4.6,6.6-10.4,6.6-17.1c0-6.8-2.2-12.4-6.6-17.1C733,746.5,727.6,744.1,721.3,744.1z"/>
			<path class="st1" d="M791.2,797.3v-51.9h-12v-6.7h12v-20.4h7.2v20.4h13.2v6.7h-13.2v51.9H791.2z"/>
			<path class="st1" d="M846,789.8c-5.7-5.9-8.5-13.2-8.5-21.8s2.8-15.8,8.5-21.8c5.7-5.9,12.6-8.9,20.8-8.9c8.3,0,15.2,3,20.9,8.9
				s8.5,13.2,8.5,21.8s-2.8,15.8-8.5,21.8c-5.7,5.9-12.6,8.9-20.9,8.9C858.6,798.7,851.7,795.8,846,789.8z M882.6,785.1
				c4.3-4.6,6.4-10.3,6.4-17s-2.1-12.3-6.4-17c-4.3-4.6-9.5-6.9-15.8-6.9c-6.2,0-11.4,2.3-15.7,6.9c-4.3,4.6-6.4,10.3-6.4,17
				s2.1,12.4,6.4,17c4.3,4.6,9.5,6.9,15.7,6.9C873.1,792,878.3,789.7,882.6,785.1z"/>
			<path class="st1" d="M927.7,738.6h3.5h3.6v8.4h0.1c0.6-1.4,1.3-2.7,2.1-3.7c3-3.9,7.6-6,13.9-6.3v7.9c-4.8,0.4-8.6,2-11.5,4.9
				c-3.1,3.3-4.6,7.9-4.6,13.9v33.4h-3.6h-3.6L927.7,738.6L927.7,738.6z"/>
			<path class="st1" d="M1000.7,753.2c0-2.7-0.7-4.8-2.3-6.5s-3.7-2.6-6.2-2.6c-2.6,0-4.7,0.8-6.2,2.5c-1.5,1.6-2.3,3.8-2.3,6.7
				c0,2.2,0.8,4,2.3,5.5c1.5,1.4,4.2,2.8,8,4c5.6,1.9,9.7,4.3,12.1,7.3c2.5,2.9,3.7,6.8,3.7,11.5c0,4.9-1.7,9-5,12.3
				s-7.5,4.9-12.5,4.9c-5.3,0-9.6-1.7-12.7-5c-3.1-3.4-4.7-7.9-4.7-13.6h7.2c-0.1,3.8,0.8,6.7,2.6,8.8s4.4,3.2,7.6,3.2
				c3.1,0,5.6-0.9,7.5-2.7s2.8-4.2,2.8-7.3s-0.9-5.5-2.7-7.4c-1.8-1.8-4.8-3.5-9.2-4.9c-5.1-1.7-8.7-3.8-11-6.3
				c-2.2-2.5-3.4-5.7-3.4-9.7c0-4.7,1.5-8.6,4.5-11.6c3-3.1,6.7-4.6,11.2-4.6c4.7,0,8.5,1.5,11.4,4.3c2.9,2.9,4.3,6.7,4.3,11.4h-7
				V753.2z"/>
			<path class="st1" d="M1088.7,718.1h7v13.4h-7V718.1z M1088.7,738.7h3.6h3.6v58.6h-3.6h-3.6V738.7z"/>
			<path class="st1" d="M1129.8,738.7h3.5h3.6v7.5l1.2-1.5c4-5.1,9.4-7.6,16.4-7.6c7.8,0,13.8,2.5,18.2,7.5c4.4,5,6.5,11.9,6.5,20.8
				v31.9h-3.6h-3.6v-32c0-6.6-1.6-11.8-4.6-15.6c-3.1-3.8-7.4-5.6-12.9-5.6c-5.6,0-10,1.9-13,5.7s-4.5,9.3-4.5,16.3v31.2h-3.6h-3.6
				V738.7z"/>
			<path class="st1" d="M1283.6,753.2c0-2.7-0.7-4.8-2.3-6.5c-1.6-1.7-3.7-2.6-6.2-2.6c-2.6,0-4.7,0.8-6.2,2.5
				c-1.5,1.6-2.3,3.8-2.3,6.7c0,2.2,0.8,4,2.3,5.5c1.5,1.4,4.2,2.8,8,4c5.6,1.9,9.7,4.3,12.1,7.3c2.5,2.9,3.7,6.8,3.7,11.5
				c0,4.9-1.7,9-5,12.3s-7.5,4.9-12.5,4.9c-5.3,0-9.6-1.7-12.7-5c-3.1-3.4-4.7-7.9-4.7-13.6h7.2c-0.1,3.8,0.8,6.7,2.6,8.8
				c1.8,2.1,4.3,3.2,7.6,3.2c3.1,0,5.6-0.9,7.5-2.7s2.8-4.2,2.8-7.3s-0.9-5.5-2.7-7.4c-1.8-1.8-4.8-3.5-9.2-4.9
				c-5.1-1.7-8.7-3.8-11-6.3c-2.2-2.5-3.4-5.7-3.4-9.7c0-4.7,1.5-8.6,4.4-11.6c3-3.1,6.7-4.6,11.2-4.6c4.7,0,8.5,1.5,11.3,4.3
				c2.9,2.9,4.3,6.7,4.3,11.4h-6.8V753.2z"/>
			<path class="st1" d="M1329.2,797.3v-51.9h-12v-6.7h12v-20.4h7.2v20.4h13.2v6.7h-13.2v51.9H1329.2z"/>
			<path class="st1" d="M1404.4,798.7c-8.2,0-15.1-3-20.8-8.9c-5.7-5.9-8.5-13.2-8.5-21.7c0-8.6,2.8-15.9,8.5-21.8
				c5.7-5.9,12.6-8.9,20.8-8.9c8.2,0,15.2,3,20.8,8.9c5.6,5.9,8.5,13.2,8.5,21.8c0,0.9,0,1.9-0.1,2.8h-51.2
				c0.5,5.4,2.6,10.2,6.3,14.1c4.3,4.6,9.6,6.9,15.9,6.9c4.5,0,8.4-1.2,11.8-3.5s6.1-5.7,8.1-10.2h7.5c-2,6.1-5.5,11-10.6,14.8
				C1416.3,796.8,1410.7,798.7,1404.4,798.7z M1426.2,764.2c-0.7-5.1-2.8-9.5-6.2-13.2c-4.3-4.6-9.5-6.9-15.7-6.9s-11.4,2.3-15.7,7
				c-3.3,3.6-5.4,8-6.2,13.1L1426.2,764.2L1426.2,764.2z"/>
			<path class="st1" d="M1491.8,798.7c-8.2,0-15.1-3-20.7-8.9c-5.7-5.9-8.5-13.2-8.5-21.7c0-8.6,2.8-15.9,8.5-21.8
				c5.7-5.9,12.6-8.9,20.7-8.9c8.2,0,15.2,3,20.8,8.9c5.7,5.9,8.5,13.2,8.5,21.8c0,0.9,0,1.9-0.2,2.8h-51.2
				c0.5,5.4,2.6,10.2,6.3,14.1c4.3,4.6,9.6,6.9,15.9,6.9c4.5,0,8.4-1.2,11.8-3.5s6.1-5.7,8.1-10.2h7.5c-2,6.1-5.5,11-10.6,14.8
				C1503.7,796.8,1498,798.7,1491.8,798.7z M1513.6,764.2c-0.7-5.1-2.8-9.5-6.2-13.2c-4.3-4.6-9.5-6.9-15.7-6.9s-11.4,2.3-15.7,7
				c-3.3,3.6-5.4,8-6.2,13.1L1513.6,764.2L1513.6,764.2z"/>
			<path class="st1" d="M1552.6,718.1h3.6h3.6v79.1h-3.6h-3.6V718.1z"/>
			<path class="st1" d="M1643.1,718.1h3.6h3.6v30.5l2.1-2.3c5.6-5.9,12.7-8.8,21.2-8.8c8.2,0,15.1,3,20.7,8.9s8.4,13.2,8.4,21.8
				s-2.8,15.8-8.4,21.7s-12.5,8.9-20.7,8.9c-8.5,0-15.6-3-21.2-9l-2.1-2.4v10h-7.2V718.1z M1672.6,792c6.4,0,11.8-2.3,16.2-7
				c4.4-4.6,6.6-10.4,6.6-17.1c0-6.7-2.2-12.4-6.6-17.1c-4.4-4.7-9.8-7-16.2-7c-6.3,0-11.7,2.3-16.1,7c-4.4,4.6-6.6,10.3-6.6,17.1
				c0,6.7,2.2,12.5,6.6,17.1C1660.9,789.7,1666.3,792,1672.6,792z"/>
			<path class="st1" d="M1740.3,773.4c0,5.8,1.5,10.3,4.5,13.6s7.1,4.9,12.4,4.9c5.7,0,10.1-1.9,13.2-5.7s4.7-9.3,4.7-16.4v-31h3.6
				h3.6v58.6h-3.3h-3.4V788c-0.6,1.1-1.2,2.2-2,3.2c-3.9,5.1-9.3,7.7-16.1,7.7c-7.6,0-13.6-2.2-17.9-6.6c-4.3-4.4-6.4-10.6-6.4-18.4
				V739h3.6h3.6L1740.3,773.4L1740.3,773.4z"/>
			<path class="st1" d="M1816.4,718.1h7v13.4h-7V718.1z M1816.4,738.7h3.6h3.6v58.6h-3.6h-3.6V738.7z"/>
			<path class="st1" d="M1857.6,718.1h3.6h3.6v79.1h-3.6h-3.6V718.1z"/>
			<path class="st1" d="M1925.1,798.7c-8.1,0-15-3-20.6-8.9s-8.4-13.2-8.4-21.7c0-8.6,2.8-15.9,8.4-21.8c5.6-5.9,12.5-8.9,20.6-8.9
				c8.6,0,15.6,3,21.3,8.9l2,2.4v-30.6h3.6h3.6v79.1h-3.6h-3.6v-9.8l-2,2.4C1940.7,795.8,1933.6,798.7,1925.1,798.7z M1925.9,744.1
				c-6.4,0-11.7,2.3-16.1,7s-6.6,10.4-6.6,17.1c0,6.8,2.2,12.5,6.6,17.1s9.8,7,16.1,7c6.4,0,11.7-2.3,16.1-7
				c4.4-4.6,6.6-10.4,6.6-17.1c0-6.8-2.2-12.4-6.6-17.1C1937.7,746.5,1932.3,744.1,1925.9,744.1z"/>
			<path class="st1" d="M1989.7,718.1h7v13.4h-7V718.1z M1989.7,738.7h3.6h3.6v58.6h-3.6h-3.6V738.7z"/>
			<path class="st1" d="M2030.8,738.7h3.6h3.6v7.5l1.2-1.5c4-5.1,9.4-7.6,16.4-7.6c7.8,0,13.8,2.5,18.2,7.5c4.3,5,6.5,11.9,6.5,20.8
				v31.9h-3.6h-3.6v-32c0-6.6-1.5-11.8-4.6-15.6s-7.4-5.6-12.9-5.6c-5.6,0-10,1.9-13,5.7c-3.1,3.8-4.6,9.3-4.6,16.3v31.2h-3.6h-3.6
				L2030.8,738.7L2030.8,738.7z"/>
			<path class="st1" d="M2141.6,813.4c6.8,0,11.9-1.9,15.5-5.8c3.5-3.9,5.3-9.5,5.3-16.9v-3.2l-1.9,2.3c-5.5,6-12.5,8.9-20.9,8.9
				c-8,0-14.7-3-20.2-8.9s-8.2-13.2-8.2-21.7c0-8.6,2.8-15.9,8.3-21.8c5.5-5.9,12.2-8.9,20.2-8.9c8.4,0,15.3,3,20.8,8.9l1.9,2.2
				v-9.9h7.2v51c0,9.7-2.4,17.2-7.3,22.5c-4.9,5.2-11.8,7.9-20.7,7.9c-7.2,0-13.2-1.9-18.2-5.6c-4.9-3.8-8.2-9-9.9-15.6h7.7
				c1.6,4.6,4.2,8.1,7.9,10.7C2132.7,812.1,2136.9,813.4,2141.6,813.4z M2140.5,743.8c-6.2,0-11.4,2.3-15.7,7s-6.4,10.4-6.4,17.1
				c0,6.8,2.1,12.5,6.4,17.1c4.3,4.6,9.5,7,15.7,7s11.5-2.3,15.8-7c4.3-4.6,6.4-10.4,6.4-17.1c0-6.8-2.2-12.4-6.4-17.1
				C2152,746.1,2146.7,743.8,2140.5,743.8z"/>
			<path class="st1" d="M2225.3,753.2c0-2.7-0.7-4.8-2.3-6.5s-3.7-2.6-6.2-2.6c-2.6,0-4.7,0.8-6.2,2.5c-1.5,1.6-2.3,3.8-2.3,6.7
				c0,2.2,0.8,4,2.3,5.5c1.5,1.4,4.2,2.8,8,4c5.6,1.9,9.7,4.3,12.1,7.3c2.5,2.9,3.7,6.8,3.7,11.5c0,4.9-1.7,9-5,12.3
				s-7.5,4.9-12.5,4.9c-5.3,0-9.6-1.7-12.7-5c-3.1-3.4-4.7-7.9-4.7-13.6h7.2c-0.1,3.8,0.8,6.7,2.6,8.8s4.3,3.2,7.6,3.2
				c3.1,0,5.6-0.9,7.5-2.7s2.8-4.2,2.8-7.3s-0.9-5.5-2.7-7.4c-1.8-1.8-4.8-3.5-9.2-4.9c-5.1-1.7-8.7-3.8-11-6.3
				c-2.2-2.5-3.4-5.7-3.4-9.7c0-4.7,1.5-8.6,4.4-11.6c3-3.1,6.7-4.6,11.2-4.6c4.7,0,8.5,1.5,11.3,4.3c2.9,2.9,4.3,6.7,4.3,11.4h-6.8
				V753.2z"/>
		</g>
	</g>
</g>
</svg>
