<svg width="306" height="146" viewBox="0 0 306 146" fill="none" xmlns="http://www.w3.org/2000/svg"><g clip-path="url(#clip0)"><path d="M282.21 145.42H23.53C10.56 145.42 0 134.9 0 121.96V0h282.21c12.98 0 23.53 10.52 23.53 23.46v98.5c.01 12.94-10.55 23.46-23.53 23.46z" fill="#E30613"/><path d="M3.78 98.42v23.54c0 10.87 8.84 19.68 19.76 19.68h258.68c10.91 0 19.76-8.81 19.76-19.68V98.42H3.78z" fill="#E30613"/><path d="M282.21 3.78H3.78v94.64h298.19V23.46c0-10.87-8.85-19.68-19.76-19.68zM24.36 111.63h2.02v-4.12h5.61v4.12h2.51v4.71h-2.51v7c0 1.5.22 2.13 1.42 2.13h1.09v4.86h-1.98c-3.93 0-6.14-1.01-6.14-6.29v-7.71h-2.02v-4.7zm19.2 19.08c-4.75 0-7.3-2.88-7.3-8.6v-2.24c0-5.72 2.54-8.6 7.3-8.6s7.3 2.88 7.3 8.6v2.24c-.01 5.72-2.55 8.6-7.3 8.6zm0-14.74c-1.46 0-1.68 1.38-1.68 4.15v1.72c0 2.77.22 4.15 1.68 4.15s1.68-1.38 1.68-4.15v-1.72c0-2.76-.22-4.15-1.68-4.15zm16.5 14.74c-4.75 0-7.3-2.88-7.3-8.6v-2.24c0-5.72 2.54-8.6 7.3-8.6s7.3 2.88 7.3 8.6v2.24c-.01 5.72-2.55 8.6-7.3 8.6zm0-14.74c-1.46 0-1.68 1.38-1.68 4.15v1.72c0 2.77.22 4.15 1.68 4.15s1.68-1.38 1.68-4.15v-1.72c0-2.76-.22-4.15-1.68-4.15zm9.65-11.45h5.61V123c0 2.02.82 2.54 1.76 2.54v4.79c-4.49 0-7.37-1.05-7.37-6.1v-19.71zm18.52 12.84c-.56-.82-1.2-1.31-2.28-1.31-.6 0-1.12.26-1.12.97 0 .52.22.97 1.42 1.23 4.64 1.09 6.21 3.07 6.21 6.51 0 3.74-2.51 5.95-6.62 5.95-3.26 0-5.57-.82-7.07-3.11l4.27-3.14c.49.82.97 1.46 2.58 1.46.82 0 1.23-.34 1.23-1.01 0-.67-.37-1.01-1.42-1.31-3.78-1.08-6.21-2.69-6.21-6.36 0-3.74 2.54-5.99 6.7-5.99 2.62 0 5.13.71 6.36 3.11l-4.05 3zm24.85 20.09h-2.71v-32.92h2.71v32.92zm30.98-9.95c-1.23 2.32-3.07 3.22-6.02 3.22-5.28 0-7.45-3.82-7.45-8.46v-2.62c0-5.8 2.77-8.38 6.96-8.38 4.83 0 6.92 3.11 6.92 8.94v2.21h-8.27c0 2.1.15 3.59 1.95 3.59 1.23 0 1.53-.52 1.98-1.27l3.93 2.77zm-7.82-8.83h2.66c0-1.98-.49-2.69-1.31-2.69-.97-.01-1.35 1.04-1.35 2.69zm10.33.97c0-5.46 2.54-8.38 6.06-8.38 1.46 0 2.36.56 2.92 1.31v-.94h5.61v25.82h-5.61v-7.48c-.67.49-1.5.75-2.69.75-3.97 0-6.29-3.07-6.29-8.46v-2.62zm5.61 2.21c0 2.77.22 4.15 1.68 4.15s1.68-1.38 1.68-4.15v-1.72c0-2.77-.22-4.15-1.68-4.15s-1.68 1.38-1.68 4.15v1.72zm26.38 8.49h-5.42v-1.27c-.6 1.05-1.35 1.65-3.37 1.65-2.73 0-5.72-1.8-5.72-7.41v-11.67h5.61v10.63c0 2.54.07 3.67 1.61 3.67 1.46 0 1.68-1.05 1.68-3.63v-10.66h5.61v18.69zm3.41-25.82h5.61v5.24h-5.61v-5.24zm0 7.11h5.61v18.71h-5.61v-18.71zm23.57 10.63c0 5.39-2.32 8.46-6.29 8.46-1.2 0-2.02-.26-2.69-.75v7.48h-5.61v-25.82h5.61v.94c.56-.75 1.46-1.31 2.92-1.31 3.52 0 6.06 2.92 6.06 8.38v2.62zm-7.3-6.29c-1.46 0-1.68 1.38-1.68 4.15v1.72c0 2.77.22 4.15 1.68 4.15s1.68-1.38 1.68-4.15v-1.72c0-2.76-.22-4.15-1.68-4.15zm9.69-4.34h5.42v1.35c.52-.82 1.65-1.72 3.29-1.72 1.65 0 3.07.79 4.08 2.36.97-1.27 2.47-2.36 4.53-2.36 3.52 0 5.8 2.36 5.8 7.33v11.75h-5.61v-10.66c0-2.51-.34-3.63-1.57-3.63-1.08 0-1.57.82-1.57 3.25v11.04h-5.61v-10.66c0-2.77-.52-3.63-1.61-3.63-.97 0-1.53.9-1.53 3.59v10.7h-5.61v-18.71h-.01zm38.99 15.87c-1.23 2.32-3.07 3.22-6.02 3.22-5.28 0-7.45-3.82-7.45-8.46v-2.62c0-5.8 2.77-8.38 6.96-8.38 4.83 0 6.92 3.11 6.92 8.94v2.21h-8.27c0 2.1.15 3.59 1.95 3.59 1.23 0 1.53-.52 1.98-1.27l3.93 2.77zm-7.82-8.83h2.66c0-1.98-.49-2.69-1.31-2.69-.98-.01-1.35 1.04-1.35 2.69zm10.81-7.04h5.42v1.31c.64-.79 1.8-1.68 3.7-1.68 2.66 0 5.39 1.65 5.39 7.33v11.75h-5.61v-10.66c0-2.51-.07-3.63-1.5-3.63-1.5 0-1.8 1.2-1.8 3.59v10.7h-5.61v-18.71h.01zm16.32 0h2.02v-4.12h5.61v4.12h2.51v4.71h-2.51v7c0 1.5.22 2.13 1.42 2.13h1.09v4.86h-1.98c-3.93 0-6.14-1.01-6.14-6.29v-7.71h-2.02v-4.7z" fill="#fff"/><path d="M86.86 78.44c-6.23 5.11-13.42 7.87-23.84 7.87s-17.61-2.75-23.84-7.87c-8.98-7.38-8.63-17.21-8.63-27.73s-.36-20.36 8.63-27.73c6.23-5.11 13.42-7.87 23.84-7.87s17.61 2.75 23.84 7.87c8.98 7.38 8.63 17.21 8.63 27.73-.01 10.52.35 20.35-8.63 27.73zM71.4 33.5c-1.56-1.67-4.55-3.05-8.39-3.05-3.84 0-6.83 1.38-8.39 3.05-1.92 2.07-3.11 4.43-3.11 17.21 0 12.78 1.2 15.05 3.11 17.11 1.56 1.67 4.55 3.15 8.39 3.15 3.84 0 6.83-1.48 8.39-3.15 1.92-2.06 3.11-4.33 3.11-17.11.01-12.79-1.19-15.15-3.11-17.21zm93.2 45.33c-5.87 4.82-14.14 6.88-23 6.88h-31.63V15.7h31.63c8.86 0 17.13 2.06 23 6.88 9.94 8.16 8.86 17.11 8.86 28.13.01 11.01 1.08 19.96-8.86 28.12zm-14.38-43.86c-1.92-2.36-4.79-3.93-10.06-3.93h-9.22v39.34h9.22c5.27 0 8.15-1.57 10.06-3.93 1.68-1.97 2.28-3.83 2.28-15.73 0-11.81-.6-13.78-2.28-15.75zm96.32 50.75V52.18l-12.1 17.31h-13.42l-12.1-17.31v33.53h-20.96V15.7h20.6l19.17 30.88L246.9 15.7h20.6v70.02h-20.96z" fill="#000"/></g><defs><clipPath id="clip0"><path fill="#fff" d="M0 0h305.75v145.42H0z"/></clipPath></defs></svg>