<svg xmlns="http://www.w3.org/2000/svg" viewBox="0 0 193.56 90.49"><g id="Calque_2" data-name="Calque 2"><g id="Layer_1" data-name="Layer 1"><path d="M70.89,0,66.53,2.92,48.07,15.28l2.34,3.5L64.16,9.57a83,83,0,0,1-12.64,26,28.73,28.73,0,1,0-8.05,42.06,77.24,77.24,0,0,0,24.37,12l1.89.55L58.92,71.48l-1.36.79s7.06,12.23,8.76,15.16a75.4,75.4,0,0,1-21.65-11c-1-.73-2-1.48-2.91-2.24A76,76,0,0,1,29.54,61.7h0c-.41-.54-.82-1.08-1.21-1.62l-.11-.16c-.41-.55-.8-1.11-1.19-1.67h0A82.23,82.23,0,0,1,15.15,32.64a24.46,24.46,0,0,1,33.69,6.44A88.91,88.91,0,0,1,28.73,57.17c.8,1.14,1.63,2.28,2.53,3.43A93,93,0,0,0,51.11,43.1a24.41,24.41,0,0,1-7.9,29.67c1.11.91,2.27,1.79,3.47,2.66a28.67,28.67,0,0,0,7.34-36A87.43,87.43,0,0,0,69.75,5.12Zm-31,74.84a24.37,24.37,0,0,1-28.23-4.26,95.74,95.74,0,0,0,16.51-8A77.58,77.58,0,0,0,39.86,74.84ZM25.64,59.11a88.46,88.46,0,0,1-16.93,8,24.41,24.41,0,0,1,5.07-33.5A84.55,84.55,0,0,0,25.64,59.11Z"/><path d="M51.11,43.1A93,93,0,0,1,31.26,60.6a75.5,75.5,0,0,0,12,12.17,24.41,24.41,0,0,0,7.9-29.67Zm-23,19.45a97.75,97.75,0,0,1-13.27,6.76l-.31.13L13.18,70l-1.55.58a24.41,24.41,0,0,0,17.09,7c.54,0,1.08,0,1.62,0l.55,0,1-.11.67-.11.88-.15.71-.16.79-.2q.38-.09.75-.21l.7-.23L37.2,76l.57-.24c.72-.28,1.42-.6,2.09-.94A77.58,77.58,0,0,1,28.14,62.55Z"/><path d="M82.42,71.39l2.63-11.26H87.4l2.5,11.26H87.65l-.37-2H85l-.35,2Zm3-3.73h1.49c-.15-.78-.29-1.61-.41-2.47s-.24-1.77-.33-2.73c-.11.85-.23,1.7-.36,2.57S85.56,66.77,85.43,67.66Z"/><path d="M94.17,63.82h2v7a5.65,5.65,0,0,1-.65,3.25,2.82,2.82,0,0,1-2.32.82,2.87,2.87,0,0,1-2.06-.69,2.55,2.55,0,0,1-.74-1.94v-.11H92.2a1.17,1.17,0,0,0,.25.82,1,1,0,0,0,.74.27A.89.89,0,0,0,94,73a1.66,1.66,0,0,0,.22-1V70.4a3,3,0,0,1-.77.8,1.59,1.59,0,0,1-.87.27,1.8,1.8,0,0,1-1.65-1,7.28,7.28,0,0,1,0-5.72,1.83,1.83,0,0,1,1.66-1,1.49,1.49,0,0,1,.91.31,2.43,2.43,0,0,1,.71.93Zm0,3.67A4.25,4.25,0,0,0,94,65.91a.75.75,0,0,0-.72-.48.7.7,0,0,0-.66.49,4.33,4.33,0,0,0-.2,1.58,4.48,4.48,0,0,0,.22,1.63.76.76,0,0,0,.69.54.71.71,0,0,0,.68-.5A4.78,4.78,0,0,0,94.17,67.49Z"/><path d="M99.39,68.17v.06a2.36,2.36,0,0,0,.3,1.3,1,1,0,0,0,.86.46.92.92,0,0,0,.6-.22,1.52,1.52,0,0,0,.41-.65h1.79a3,3,0,0,1-1,1.77,2.87,2.87,0,0,1-1.9.64,2.68,2.68,0,0,1-2.24-1.06,4.44,4.44,0,0,1-.84-2.85,4.51,4.51,0,0,1,.84-2.88,2.71,2.71,0,0,1,2.24-1.06,2.63,2.63,0,0,1,2.26,1,5.21,5.21,0,0,1,.76,3.08v.37ZM101.62,67a2.34,2.34,0,0,0-.3-1.22.92.92,0,0,0-.82-.4.94.94,0,0,0-.83.42A2.14,2.14,0,0,0,99.39,67Z"/><path d="M108,71.39V66.81a1.84,1.84,0,0,0-.15-.89.57.57,0,0,0-.53-.25.65.65,0,0,0-.58.29,2,2,0,0,0-.17.94v4.49H104.5V63.82h1.94V65a3,3,0,0,1,.92-.94,2.26,2.26,0,0,1,1.16-.31,1.4,1.4,0,0,1,1.24.51,3.82,3.82,0,0,1,.34,2v5.17Z"/><path d="M115.55,66a1.94,1.94,0,0,0-.48-.27,1.44,1.44,0,0,0-.46-.08,1.11,1.11,0,0,0-1,.52,2.54,2.54,0,0,0-.35,1.41,2.47,2.47,0,0,0,.36,1.44,1.17,1.17,0,0,0,1,.5,1.23,1.23,0,0,0,.47-.09,1.59,1.59,0,0,0,.41-.3v2a2.25,2.25,0,0,1-.68.33,2.67,2.67,0,0,1-.75.11A2.47,2.47,0,0,1,112,70.47a4.67,4.67,0,0,1-.79-2.88,4.72,4.72,0,0,1,.79-2.85,2.52,2.52,0,0,1,2.11-1.06,3.76,3.76,0,0,1,1.43.3Z"/><path d="M118.24,68.17v.06a2.36,2.36,0,0,0,.3,1.3,1,1,0,0,0,.85.46.93.93,0,0,0,.61-.22,1.42,1.42,0,0,0,.4-.65h1.8a3,3,0,0,1-1,1.77,2.87,2.87,0,0,1-1.9.64A2.71,2.71,0,0,1,117,70.47a4.49,4.49,0,0,1-.83-2.85,4.57,4.57,0,0,1,.83-2.88,2.74,2.74,0,0,1,2.25-1.06,2.63,2.63,0,0,1,2.26,1,5.21,5.21,0,0,1,.76,3.08v.37ZM120.47,67a2.34,2.34,0,0,0-.3-1.22.92.92,0,0,0-.82-.4.94.94,0,0,0-.83.42,2.14,2.14,0,0,0-.28,1.21Z"/><path d="M127.82,63.84h0a1.43,1.43,0,0,1,1.26-.68c1.88,0,2,2.45,2,4.09,0,1.83-.05,4.27-1.93,4.27a1.57,1.57,0,0,1-1.34-.76h0v3.73h-1V63.29h1Zm2.24,3.41c0-1.25,0-3.25-1.2-3.25s-1.13,1.67-1.13,3.11.06,3.57,1.18,3.57C129.86,70.68,130.06,69.75,130.06,67.25Z"/><path d="M136.71,67.33c0,1.53-.19,4.19-2.32,4.19s-2.32-2.66-2.32-4.19.19-4.17,2.32-4.17S136.71,65.82,136.71,67.33Zm-3.58,0c0,.79,0,3.22,1.26,3.22s1.26-2.43,1.26-3.22,0-3.2-1.26-3.2S133.13,66.56,133.13,67.33Z"/><path d="M138.88,63.29v5.08c0,1.11.06,2.18,1.07,2.18s1.09-1.07,1.11-2.18V63.29h1v5.95a2.13,2.13,0,1,1-4.24,0V63.29Z"/><path d="M144.47,64.36h0c.23-.57.67-1.21,1.35-1.2v1.2h-.21c-1.06,0-1.17,1-1.17,2.32v4.72h-1v-8.1h1Z"/><path d="M151,71.39h-1V58.76h1Z"/><path d="M153.24,67.55v.24c0,.81.14,2.76,1.26,2.76.9,0,1-1.26,1-1.91h1.06c0,1.23-.49,2.88-2,2.88-2.13,0-2.42-2.53-2.42-4.16,0-1.45.32-4.2,2.28-4.2s2.19,2.48,2.19,3.9v.49Zm2.37-.87,0-.14c0-.77-.06-2.41-1.13-2.41s-1.2,1.83-1.2,2.55Z"/><path d="M89.17,90.23a4.3,4.3,0,0,1-.65.19,3,3,0,0,1-.67.07,4.36,4.36,0,0,1-3.49-1.57A6,6,0,0,1,83,84.82a6.53,6.53,0,0,1,1.32-4.26,4.2,4.2,0,0,1,3.43-1.62,3.51,3.51,0,0,1,.74.07,3,3,0,0,1,.67.2v2.11a3.5,3.5,0,0,0-.63-.2,3.13,3.13,0,0,0-.6-.06,2.14,2.14,0,0,0-1.83,1,4.46,4.46,0,0,0-.7,2.64,4.24,4.24,0,0,0,.72,2.56,2.22,2.22,0,0,0,1.86,1,3,3,0,0,0,.58-.07,4.69,4.69,0,0,0,.6-.2Z"/><path d="M96.34,86.55a4.39,4.39,0,0,1-.86,2.87,3,3,0,0,1-4.59,0A4.47,4.47,0,0,1,90,86.55a4.42,4.42,0,0,1,.85-2.85,3,3,0,0,1,4.6,0A4.42,4.42,0,0,1,96.34,86.55Zm-3.15,2.11a1,1,0,0,0,.86-.55,3.34,3.34,0,0,0,.3-1.57,3.3,3.3,0,0,0-.3-1.56,1,1,0,0,0-1.72,0,4.26,4.26,0,0,0,0,3.14A.94.94,0,0,0,93.19,88.66Z"/><path d="M97.44,90.35V82.78h1.93V84a3,3,0,0,1,.89-.94,2.1,2.1,0,0,1,1.1-.31,1.55,1.55,0,0,1,1,.32,1.57,1.57,0,0,1,.51.93,3.46,3.46,0,0,1,.93-.94,2,2,0,0,1,1-.31,1.22,1.22,0,0,1,1.15.58,5.41,5.41,0,0,1,.33,2.35v4.72h-2V85.77a2,2,0,0,0-.14-.89.51.51,0,0,0-.48-.25.63.63,0,0,0-.58.27,1.84,1.84,0,0,0-.18,1v4.49h-2V85.77a2.1,2.1,0,0,0-.14-.89.52.52,0,0,0-.48-.26.65.65,0,0,0-.6.28,1.89,1.89,0,0,0-.18,1v4.49Z"/><path d="M107.81,90.35V82.78h1.92V84a3,3,0,0,1,.89-.94,2.11,2.11,0,0,1,1.11-.31,1.54,1.54,0,0,1,1,.32,1.58,1.58,0,0,1,.52.93,3.3,3.3,0,0,1,.92-.94,2,2,0,0,1,1-.31,1.22,1.22,0,0,1,1.15.58,5.41,5.41,0,0,1,.33,2.35v4.72h-2V85.77a2,2,0,0,0-.14-.89.51.51,0,0,0-.48-.25.64.64,0,0,0-.58.27,1.86,1.86,0,0,0-.17,1v4.49h-2V85.77a2.1,2.1,0,0,0-.14-.89.52.52,0,0,0-.48-.26.65.65,0,0,0-.6.28,1.89,1.89,0,0,0-.18,1v4.49Z"/><path d="M119.81,87.13v.06a2.36,2.36,0,0,0,.3,1.3A1,1,0,0,0,121,89a.9.9,0,0,0,.6-.22,1.52,1.52,0,0,0,.41-.65h1.8a3.1,3.1,0,0,1-1,1.77,2.86,2.86,0,0,1-1.9.64,2.68,2.68,0,0,1-2.24-1.06,4.44,4.44,0,0,1-.84-2.85,4.51,4.51,0,0,1,.84-2.88,2.71,2.71,0,0,1,2.24-1.06,2.63,2.63,0,0,1,2.26,1,5.2,5.2,0,0,1,.77,3.08v.37ZM122,85.92a2.24,2.24,0,0,0-.3-1.22.91.91,0,0,0-.82-.4.93.93,0,0,0-.82.42,2.06,2.06,0,0,0-.29,1.21Z"/><path d="M125,90.35V82.78h1.94v1.34a2.5,2.5,0,0,1,.68-1.1,1.56,1.56,0,0,1,1-.38v2h-.14a1.33,1.33,0,0,0-1.12.39,3.33,3.33,0,0,0-.3,1.77v3.56Z"/><path d="M133.45,84.93a1.94,1.94,0,0,0-.48-.27,1.48,1.48,0,0,0-.46-.08,1.11,1.11,0,0,0-1,.52,2.54,2.54,0,0,0-.35,1.41,2.47,2.47,0,0,0,.36,1.44,1.26,1.26,0,0,0,1.47.41,1.48,1.48,0,0,0,.42-.3v2a2.37,2.37,0,0,1-.68.33,2.67,2.67,0,0,1-.75.11,2.47,2.47,0,0,1-2.11-1.06,5.59,5.59,0,0,1,0-5.73A2.51,2.51,0,0,1,132,82.64a3.55,3.55,0,0,1,.73.08,3.77,3.77,0,0,1,.7.22Z"/><path d="M136.14,87.13v.06a2.36,2.36,0,0,0,.3,1.3,1,1,0,0,0,.85.46.93.93,0,0,0,.61-.22,1.51,1.51,0,0,0,.4-.65h1.8a3,3,0,0,1-1,1.77,2.87,2.87,0,0,1-1.9.64,2.71,2.71,0,0,1-2.25-1.06,4.49,4.49,0,0,1-.83-2.85,4.57,4.57,0,0,1,.83-2.88,2.74,2.74,0,0,1,2.25-1.06,2.64,2.64,0,0,1,2.26,1,5.21,5.21,0,0,1,.76,3.08v.37Zm2.22-1.21a2.25,2.25,0,0,0-.29-1.22.92.92,0,0,0-.82-.4.94.94,0,0,0-.83.42,2.14,2.14,0,0,0-.28,1.21Z"/><path d="M146.38,87.13v.06a2.36,2.36,0,0,0,.3,1.3,1,1,0,0,0,.86.46.9.9,0,0,0,.6-.22,1.52,1.52,0,0,0,.41-.65h1.8a3.1,3.1,0,0,1-1,1.77,2.86,2.86,0,0,1-1.9.64,2.68,2.68,0,0,1-2.24-1.06,4.44,4.44,0,0,1-.84-2.85,4.51,4.51,0,0,1,.84-2.88,2.71,2.71,0,0,1,2.24-1.06,2.63,2.63,0,0,1,2.26,1,5.2,5.2,0,0,1,.77,3.08v.37Zm2.23-1.21a2.24,2.24,0,0,0-.3-1.22.91.91,0,0,0-.82-.4.93.93,0,0,0-.82.42,2.14,2.14,0,0,0-.29,1.21Z"/><path d="M150.38,90.35l1.93-4.06-1.81-3.51h2l.63,1.27a3.08,3.08,0,0,1,.18.46,2.88,2.88,0,0,1,.09.4,2.41,2.41,0,0,1,.1-.43q.08-.21.18-.45l.59-1.25h2.07l-1.91,3.48,2,4.09h-2.08l-.68-1.72a4.21,4.21,0,0,1-.14-.46c0-.17-.07-.36-.1-.57,0,.2-.07.38-.11.55a3.5,3.5,0,0,1-.16.46l-.74,1.74Z"/><path d="M157.3,90.35V84.41h-.83V82.78h.83V80.6h2.08v2.18h.83v1.63h-.83v5.94Z"/><path d="M162.77,87.13v.06a2.36,2.36,0,0,0,.3,1.3,1,1,0,0,0,.86.46.93.93,0,0,0,.61-.22,1.51,1.51,0,0,0,.4-.65h1.8a3.14,3.14,0,0,1-1,1.77,2.88,2.88,0,0,1-1.91.64,2.7,2.7,0,0,1-2.24-1.06,4.49,4.49,0,0,1-.83-2.85,4.57,4.57,0,0,1,.83-2.88,2.72,2.72,0,0,1,2.24-1.06,2.65,2.65,0,0,1,2.27,1,5.21,5.21,0,0,1,.76,3.08v.37ZM166,78.89l-2.3,2.87h-1l1.45-2.87Zm-1,7a2.25,2.25,0,0,0-.29-1.22.94.94,0,0,0-.83-.4.93.93,0,0,0-.82.42,2.14,2.14,0,0,0-.29,1.21Z"/><path d="M167.91,90.35V82.78h2v1.34a2.41,2.41,0,0,1,.68-1.1,1.53,1.53,0,0,1,1-.38v2h-.14a1.34,1.34,0,0,0-1.12.39,3.33,3.33,0,0,0-.3,1.77v3.56Z"/><path d="M172.34,80.76a1.25,1.25,0,0,1,.34-.87,1.18,1.18,0,0,1,.86-.35,1.16,1.16,0,0,1,.85.36,1.18,1.18,0,0,1,.35.86,1.18,1.18,0,0,1-1.2,1.18,1.2,1.2,0,0,1-.86-.33A1.19,1.19,0,0,1,172.34,80.76Zm.15,9.59V82.78h2.1v7.57Z"/><path d="M177.8,87.13v.06a2.36,2.36,0,0,0,.3,1.3A1,1,0,0,0,179,89a.89.89,0,0,0,.6-.22,1.43,1.43,0,0,0,.41-.65h1.8a3.14,3.14,0,0,1-1,1.77,2.9,2.9,0,0,1-1.91.64,2.68,2.68,0,0,1-2.24-1.06,4.44,4.44,0,0,1-.83-2.85,4.51,4.51,0,0,1,.83-2.88,2.71,2.71,0,0,1,2.24-1.06,2.62,2.62,0,0,1,2.26,1,5.2,5.2,0,0,1,.77,3.08v.37ZM180,85.92a2.16,2.16,0,0,0-.3-1.22.91.91,0,0,0-.82-.4.93.93,0,0,0-.82.42,2.14,2.14,0,0,0-.29,1.21Z"/><path d="M188.43,82.78V86.7a5.28,5.28,0,0,1-.6,3,2.61,2.61,0,0,1-2.17.76,2.65,2.65,0,0,1-2.18-.76,5.24,5.24,0,0,1-.6-3V82.78h2v4.87a1.36,1.36,0,0,0,.16.8.88.88,0,0,0,1.14,0,1.39,1.39,0,0,0,.17-.8V82.78Z"/><path d="M189.91,90.35V82.78h1.94v1.34a2.5,2.5,0,0,1,.68-1.1,1.54,1.54,0,0,1,1-.38v2h-.14a1.36,1.36,0,0,0-1.13.39,3.46,3.46,0,0,0-.29,1.77v3.56Z"/></g></g></svg>